<svg xmlns="http://www.w3.org/2000/svg" id="Layer_2" data-name="Layer 2" viewBox="0 0 201.84 141.13"><defs><style>      .cls-1 {        fill: #c9a37c;      }      .cls-2 {        fill: #87b7e2;      }      .cls-3 {        fill: #5d5eaa;      }      .cls-4 {        fill: #9fcd56;      }    </style></defs><g id="Logo-File"><g><g><path class="cls-1" d="M93.48,8.26c-22.3-2.86-42.88,11.18-48.86,32.16,11.69,11.5,47.31,14.12,83.79-6.71-6.32-13.42-19.13-23.43-34.93-25.45Z"></path><path class="cls-2" d="M131.67,43.35c-23.66,17.88-56.57,36.35-82.23,32.79,3.09,5.06,7.15,9.49,11.97,13,28.73-3.77,52.85-24.5,70.89-42.15-.16-1.23-.37-2.45-.63-3.65Z"></path><path class="cls-4" d="M132.47,48.52c-10.76,14.42-35.17,41.77-59.33,46.7,2.85,.98,5.83,1.7,8.93,2.1,24.59,3.15,47.08-14.23,50.23-38.83,.43-3.38,.47-6.72,.16-9.97Z"></path><path class="cls-3" d="M149.28,23.64c-6.39,5-12.94,9.36-19.56,13.13-31.03,17.69-63.49,22.17-86.83,15.83-.03,5.11,.81,10.06,2.4,14.71,24.78,5.46,55.68-7.72,85.36-27.84,6.34-4.3,12.63-8.91,18.78-13.73,2.87-2.96,2.57-3.83-.15-2.1Z"></path><path class="cls-3" d="M170.17,7.95c-1.95-.13-5.04,1.27-6.48,1.86-1.43,.59-5.45,3.75-9.04,5.45-3.59,1.7-6.38,1.69-9.05,1.63s-7.44-.78-11.52,1.22c-3.09,1.4-3.6,2.14-3.16,2.6,.43,.45,6.65,.58,9.83,1.36s4.28,1.47,4.28,1.47l2.14-.22s-6.11,5.42-7.23,6.06-2.54,.35-5.83,.63c-3.29,.29-4.8,2.52-4.05,2.58,.56,.04,6.13,.49,9.21,.81,10.29-7.29,27.83-20.68,27.83-20.68,3.75-3.07,5.52-4.95,3.07-4.77Zm-13.04,18.59c.67-.21,1.91-2.36,1.41-5.87l-5.78,4.58c1.14,.82,3.7,1.5,4.37,1.29Z"></path></g><polygon class="cls-2" points="148.82 0 149.8 1.98 151.98 2.29 150.4 3.83 150.77 6 148.82 4.98 146.87 6 147.24 3.83 145.66 2.29 147.85 1.98 148.82 0"></polygon><polygon class="cls-2" points="169.77 19.15 171.27 22.19 174.62 22.67 172.19 25.03 172.77 28.37 169.77 26.79 166.78 28.37 167.35 25.03 164.93 22.67 168.28 22.19 169.77 19.15"></polygon><polygon class="cls-4" points="125.27 8.35 125.86 9.55 127.18 9.74 126.22 10.67 126.45 11.99 125.27 11.37 124.08 11.99 124.31 10.67 123.35 9.74 124.67 9.55 125.27 8.35"></polygon><polygon class="cls-3" points="137.56 8.34 137.91 9.06 138.69 9.17 138.13 9.73 138.26 10.51 137.56 10.14 136.85 10.51 136.99 9.73 136.42 9.17 137.2 9.06 137.56 8.34"></polygon></g><g><path class="cls-1" d="M13.77,112.45v1.74H7.95v19.23h-2.1v-19.23H0v-1.74H13.77Z"></path><path class="cls-1" d="M21.31,117.58c.95-.56,2.11-.84,3.49-.84v2.19h-.57c-1.52,0-2.74,.41-3.66,1.23s-1.38,2.19-1.38,4.11v9.15h-2.1v-16.38h2.1v2.91c.46-1.02,1.17-1.81,2.12-2.37Z"></path><path class="cls-1" d="M28,120.78c.67-1.27,1.6-2.25,2.79-2.94s2.54-1.04,4.04-1.04,2.9,.36,4.04,1.08c1.13,.72,1.95,1.64,2.45,2.76v-3.6h2.1v16.38h-2.1v-3.63c-.52,1.12-1.35,2.04-2.47,2.77-1.13,.73-2.48,1.1-4.04,1.1s-2.82-.35-4.01-1.05-2.12-1.69-2.79-2.97c-.67-1.28-1-2.76-1-4.44s.33-3.16,1-4.42Zm12.5,.97c-.54-1-1.28-1.77-2.21-2.31-.93-.54-1.96-.81-3.07-.81s-2.2,.26-3.12,.78c-.92,.52-1.65,1.27-2.17,2.26-.53,.99-.8,2.17-.8,3.53s.27,2.51,.8,3.52c.53,1.01,1.25,1.78,2.17,2.31,.92,.53,1.96,.79,3.12,.79s2.14-.27,3.07-.81,1.67-1.31,2.21-2.31c.54-1,.81-2.16,.81-3.48s-.27-2.48-.81-3.48Z"></path><path class="cls-1" d="M54.03,131.38l5.52-14.34h2.22l-6.57,16.38h-2.37l-6.57-16.38h2.25l5.52,14.34Z"></path><path class="cls-1" d="M79.38,126.04h-13.59c.06,1.24,.36,2.3,.9,3.18,.54,.88,1.25,1.54,2.13,2s1.84,.67,2.88,.67c1.36,0,2.5-.33,3.43-.99,.93-.66,1.54-1.55,1.84-2.67h2.22c-.4,1.6-1.26,2.91-2.57,3.92-1.31,1.01-2.96,1.52-4.93,1.52-1.54,0-2.92-.35-4.14-1.04-1.22-.69-2.17-1.67-2.87-2.94-.69-1.27-1.03-2.75-1.03-4.46s.34-3.19,1.02-4.47c.68-1.28,1.63-2.26,2.85-2.94s2.61-1.02,4.17-1.02,2.92,.34,4.09,1.02,2.07,1.59,2.7,2.74c.63,1.15,.94,2.43,.94,3.83,0,.72-.02,1.27-.06,1.65Zm-2.8-4.83c-.51-.86-1.21-1.51-2.09-1.95-.88-.44-1.84-.66-2.88-.66-1.56,0-2.89,.5-3.99,1.5-1.1,1-1.71,2.41-1.83,4.23h11.52c.02-1.22-.22-2.26-.73-3.12Z"></path><path class="cls-1" d="M85.38,111.22v22.2h-2.1v-22.2h2.1Z"></path><path class="cls-1" d="M92.25,111.22v22.2h-2.1v-22.2h2.1Z"></path><path class="cls-1" d="M110.52,117.04l-9.72,24.09h-2.19l3.18-7.8-6.72-16.29h2.31l5.58,13.98,5.4-13.98h2.16Z"></path><path class="cls-4" d="M141.81,112.36l-5.49,21.06h-6.21l-3.36-13.86-3.48,13.86h-6.21l-5.34-21.06h5.49l3.03,15.33,3.75-15.33h5.64l3.6,15.33,3.06-15.33h5.52Z"></path><path class="cls-4" d="M147.58,132.61c-1.31-.7-2.34-1.7-3.09-3s-1.12-2.82-1.12-4.56,.38-3.23,1.14-4.54c.76-1.31,1.8-2.31,3.12-3.01,1.32-.7,2.8-1.05,4.44-1.05s3.12,.35,4.44,1.05c1.32,.7,2.36,1.71,3.12,3.01,.76,1.31,1.14,2.83,1.14,4.54s-.39,3.24-1.16,4.54c-.77,1.31-1.82,2.32-3.15,3.02s-2.81,1.05-4.45,1.05-3.12-.35-4.43-1.05Zm6.93-4.47c.69-.72,1.03-1.75,1.03-3.09s-.33-2.37-1-3.09-1.5-1.08-2.47-1.08-1.83,.36-2.49,1.07-.99,1.75-.99,3.1,.33,2.37,.98,3.09c.65,.72,1.46,1.08,2.45,1.08s1.81-.36,2.5-1.08Z"></path><path class="cls-4" d="M170.88,117.3c.9-.53,1.9-.79,3-.79v5.43h-1.41c-1.28,0-2.24,.28-2.88,.83-.64,.55-.96,1.51-.96,2.9v7.77h-5.13v-16.74h5.13v2.79c.6-.92,1.35-1.64,2.25-2.17Z"></path><path class="cls-4" d="M181.47,111.22v22.2h-5.13v-22.2h5.13Z"></path><path class="cls-4" d="M185.14,120.49c.65-1.3,1.53-2.3,2.65-3s2.37-1.05,3.75-1.05c1.1,0,2.1,.23,3.02,.69,.91,.46,1.62,1.08,2.14,1.86v-7.77h5.13v22.2h-5.13v-2.4c-.48,.8-1.17,1.44-2.05,1.92-.89,.48-1.93,.72-3.11,.72-1.38,0-2.63-.36-3.75-1.07s-2-1.72-2.65-3.03c-.65-1.31-.98-2.82-.98-4.54s.33-3.23,.98-4.53Zm10.5,1.53c-.71-.74-1.58-1.11-2.6-1.11s-1.88,.37-2.59,1.09c-.71,.73-1.07,1.74-1.07,3.01s.36,2.29,1.07,3.04,1.58,1.12,2.59,1.12,1.88-.37,2.6-1.11c.71-.74,1.06-1.75,1.06-3.03s-.36-2.29-1.06-3.03Z"></path></g></g></svg>